<?xml version="1.0" encoding="UTF-8" standalone="no"?>
<svg
   xmlns:dc="http://purl.org/dc/elements/1.1/"
   xmlns:cc="http://creativecommons.org/ns#"
   xmlns:rdf="http://www.w3.org/1999/02/22-rdf-syntax-ns#"
   xmlns:svg="http://www.w3.org/2000/svg"
   xmlns="http://www.w3.org/2000/svg"
   xmlns:sodipodi="http://sodipodi.sourceforge.net/DTD/sodipodi-0.dtd"
   xmlns:inkscape="http://www.inkscape.org/namespaces/inkscape"
   version="1.1"
   id="svg2"
   xml:space="preserve"
   width="793.70135"
   height="1122.52"
   viewBox="0 0 793.70135 1122.52"
   sodipodi:docname="logo RJI.ai"><metadata
     id="metadata8"><rdf:RDF><cc:Work
         rdf:about=""><dc:format>image/svg+xml</dc:format><dc:type
           rdf:resource="http://purl.org/dc/dcmitype/StillImage" /></cc:Work></rdf:RDF></metadata><defs
     id="defs6"><linearGradient
       x1="0"
       y1="0"
       x2="1"
       y2="0"
       gradientUnits="userSpaceOnUse"
       gradientTransform="matrix(44.455238,10.371096,10.371096,-44.455238,203.05536,349.56424)"
       spreadMethod="pad"
       id="linearGradient36"><stop
         style="stop-opacity:1;stop-color:#403f91"
         offset="0"
         id="stop24" /><stop
         style="stop-opacity:1;stop-color:#403f91"
         offset="0.00000085"
         id="stop26" /><stop
         style="stop-opacity:1;stop-color:#3a398e"
         offset="0.193122"
         id="stop28" /><stop
         style="stop-opacity:1;stop-color:#ae4593"
         offset="0.450618"
         id="stop30" /><stop
         style="stop-opacity:1;stop-color:#ae4593"
         offset="0.711641"
         id="stop32" /><stop
         style="stop-opacity:1;stop-color:#ae4593"
         offset="1"
         id="stop34" /></linearGradient><clipPath
       clipPathUnits="userSpaceOnUse"
       id="clipPath46"><path
         d="M 0,841.89 H 595.276 V 0 H 0 Z"
         id="path44" /></clipPath><linearGradient
       x1="0"
       y1="0"
       x2="1"
       y2="0"
       gradientUnits="userSpaceOnUse"
       gradientTransform="matrix(4.443378,1.0366091,1.0366091,-4.443378,236.66174,293.46277)"
       spreadMethod="pad"
       id="linearGradient78"><stop
         style="stop-opacity:1;stop-color:#403f91"
         offset="0"
         id="stop64" /><stop
         style="stop-opacity:1;stop-color:#403f91"
         offset="0.00000085"
         id="stop66" /><stop
         style="stop-opacity:1;stop-color:#3a398e"
         offset="0.193122"
         id="stop68" /><stop
         style="stop-opacity:1;stop-color:#ae4593"
         offset="0.35523391"
         id="stop70" /><stop
         style="stop-opacity:1;stop-color:#ae4593"
         offset="1"
         id="stop72" /><stop
         style="stop-opacity:1;stop-color:#ae4593"
         offset="1"
         id="stop74" /><stop
         style="stop-opacity:1;stop-color:#ae4593"
         offset="1"
         id="stop76" /></linearGradient><linearGradient
       x1="0"
       y1="0"
       x2="1"
       y2="0"
       gradientUnits="userSpaceOnUse"
       gradientTransform="matrix(40.62574,9.4777002,9.4777002,-40.62574,245.32401,344.49432)"
       spreadMethod="pad"
       id="linearGradient106"><stop
         style="stop-opacity:1;stop-color:#403f91"
         offset="0"
         id="stop94" /><stop
         style="stop-opacity:1;stop-color:#403f91"
         offset="0.00000085"
         id="stop96" /><stop
         style="stop-opacity:1;stop-color:#3a398e"
         offset="0.193122"
         id="stop98" /><stop
         style="stop-opacity:1;stop-color:#ae4593"
         offset="0.450618"
         id="stop100" /><stop
         style="stop-opacity:1;stop-color:#ae4593"
         offset="0.711641"
         id="stop102" /><stop
         style="stop-opacity:1;stop-color:#ae4593"
         offset="1"
         id="stop104" /></linearGradient><clipPath
       clipPathUnits="userSpaceOnUse"
       id="clipPath116"><path
         d="M 0,841.89 H 595.276 V 0 H 0 Z"
         id="path114" /></clipPath><linearGradient
       x1="0"
       y1="0"
       x2="1"
       y2="0"
       gradientUnits="userSpaceOnUse"
       gradientTransform="matrix(8.542388,1.9928792,1.9928792,-8.542388,236.05165,400.90469)"
       spreadMethod="pad"
       id="linearGradient146"><stop
         style="stop-opacity:1;stop-color:#403f91"
         offset="0"
         id="stop134" /><stop
         style="stop-opacity:1;stop-color:#403f91"
         offset="0.00000085"
         id="stop136" /><stop
         style="stop-opacity:1;stop-color:#3a398e"
         offset="0.193122"
         id="stop138" /><stop
         style="stop-opacity:1;stop-color:#ae4593"
         offset="1"
         id="stop140" /><stop
         style="stop-opacity:1;stop-color:#ae4593"
         offset="1"
         id="stop142" /><stop
         style="stop-opacity:1;stop-color:#ae4593"
         offset="1"
         id="stop144" /></linearGradient><clipPath
       clipPathUnits="userSpaceOnUse"
       id="clipPath156"><path
         d="M 0,841.89 H 595.276 V 0 H 0 Z"
         id="path154" /></clipPath><linearGradient
       x1="0"
       y1="0"
       x2="1"
       y2="0"
       gradientUnits="userSpaceOnUse"
       gradientTransform="matrix(129.1559,0,0,-129.1559,274.78943,353.50638)"
       spreadMethod="pad"
       id="linearGradient194"><stop
         style="stop-opacity:1;stop-color:#3e3d90"
         offset="0"
         id="stop174" /><stop
         style="stop-opacity:1;stop-color:#444394"
         offset="0.00000017"
         id="stop176" /><stop
         style="stop-opacity:1;stop-color:#444394"
         offset="0.00000085"
         id="stop178" /><stop
         style="stop-opacity:1;stop-color:#444394"
         offset="0.49321166"
         id="stop180" /><stop
         style="stop-opacity:1;stop-color:#b24e98"
         offset="0.978837"
         id="stop182" /><stop
         style="stop-opacity:1;stop-color:#b7599f"
         offset="0.993828"
         id="stop184" /><stop
         style="stop-opacity:1;stop-color:#b7599f"
         offset="0.99506803"
         id="stop186" /><stop
         style="stop-opacity:1;stop-color:#b7599f"
         offset="1"
         id="stop188" /><stop
         style="stop-opacity:1;stop-color:#b7599f"
         offset="1"
         id="stop190" /><stop
         style="stop-opacity:1;stop-color:#b7599f"
         offset="1"
         id="stop192" /></linearGradient><clipPath
       clipPathUnits="userSpaceOnUse"
       id="clipPath204"><path
         d="M 0,841.89 H 595.276 V 0 H 0 Z"
         id="path202" /></clipPath><linearGradient
       x1="0"
       y1="0"
       x2="1"
       y2="0"
       gradientUnits="userSpaceOnUse"
       gradientTransform="matrix(-3.6471419,110.79921,-123.90739,-4.0786233,370.28955,293.35318)"
       spreadMethod="pad"
       id="linearGradient250"><stop
         style="stop-opacity:1;stop-color:#3e3d90"
         offset="0"
         id="stop230" /><stop
         style="stop-opacity:1;stop-color:#444394"
         offset="0.00000017"
         id="stop232" /><stop
         style="stop-opacity:1;stop-color:#444394"
         offset="0.00000085"
         id="stop234" /><stop
         style="stop-opacity:1;stop-color:#444394"
         offset="0.49321166"
         id="stop236" /><stop
         style="stop-opacity:1;stop-color:#b24e98"
         offset="0.978837"
         id="stop238" /><stop
         style="stop-opacity:1;stop-color:#b7599f"
         offset="0.993828"
         id="stop240" /><stop
         style="stop-opacity:1;stop-color:#b7599f"
         offset="0.99506803"
         id="stop242" /><stop
         style="stop-opacity:1;stop-color:#b7599f"
         offset="1"
         id="stop244" /><stop
         style="stop-opacity:1;stop-color:#b7599f"
         offset="1"
         id="stop246" /><stop
         style="stop-opacity:1;stop-color:#b7599f"
         offset="1"
         id="stop248" /></linearGradient><clipPath
       clipPathUnits="userSpaceOnUse"
       id="clipPath260"><path
         d="M 0,841.89 H 595.276 V 0 H 0 Z"
         id="path258" /></clipPath><linearGradient
       x1="0"
       y1="0"
       x2="1"
       y2="0"
       gradientUnits="userSpaceOnUse"
       gradientTransform="matrix(67.304642,0,0,-67.304642,280.61142,301.05972)"
       spreadMethod="pad"
       id="linearGradient310"><stop
         style="stop-opacity:1;stop-color:#444394"
         offset="0"
         id="stop294" /><stop
         style="stop-opacity:1;stop-color:#444394"
         offset="0.00000085"
         id="stop296" /><stop
         style="stop-opacity:1;stop-color:#3e3d90"
         offset="0.193122"
         id="stop298" /><stop
         style="stop-opacity:1;stop-color:#b7599f"
         offset="0.450618"
         id="stop300" /><stop
         style="stop-opacity:1;stop-color:#b7599f"
         offset="0.6591982"
         id="stop302" /><stop
         style="stop-opacity:1;stop-color:#b24e98"
         offset="0.711641"
         id="stop304" /><stop
         style="stop-opacity:1;stop-color:#b24e98"
         offset="0.94206506"
         id="stop306" /><stop
         style="stop-opacity:1;stop-color:#ae4593"
         offset="1"
         id="stop308" /></linearGradient><clipPath
       clipPathUnits="userSpaceOnUse"
       id="clipPath320"><path
         d="M 0,841.89 H 595.276 V 0 H 0 Z"
         id="path318" /></clipPath><clipPath
       clipPathUnits="userSpaceOnUse"
       id="clipPath328"><path
         d="M 275.094,348.107 H 314.67 V 314.265 H 275.094 Z"
         id="path326" /></clipPath><linearGradient
       x1="0"
       y1="0"
       x2="1"
       y2="0"
       gradientUnits="userSpaceOnUse"
       gradientTransform="matrix(48.087532,0,0,-48.087532,311.85941,319.60977)"
       spreadMethod="pad"
       id="linearGradient388"><stop
         style="stop-opacity:1;stop-color:#ae4593"
         offset="0"
         id="stop358" /><stop
         style="stop-opacity:1;stop-color:#ae4593"
         offset="0"
         id="stop360" /><stop
         style="stop-opacity:1;stop-color:#ae4593"
         offset="0"
         id="stop362" /><stop
         style="stop-opacity:1;stop-color:#ae4593"
         offset="0"
         id="stop364" /><stop
         style="stop-opacity:1;stop-color:#ae4593"
         offset="0"
         id="stop366" /><stop
         style="stop-opacity:1;stop-color:#444394"
         offset="0.00000017"
         id="stop368" /><stop
         style="stop-opacity:1;stop-color:#444394"
         offset="0.00000085"
         id="stop370" /><stop
         style="stop-opacity:1;stop-color:#444394"
         offset="0.19222014"
         id="stop372" /><stop
         style="stop-opacity:1;stop-color:#b4549c"
         offset="1"
         id="stop374" /><stop
         style="stop-opacity:1;stop-color:#b4549c"
         offset="1"
         id="stop376" /><stop
         style="stop-opacity:1;stop-color:#b4549c"
         offset="1"
         id="stop378" /><stop
         style="stop-opacity:1;stop-color:#b4549c"
         offset="1"
         id="stop380" /><stop
         style="stop-opacity:1;stop-color:#b4549c"
         offset="1"
         id="stop382" /><stop
         style="stop-opacity:1;stop-color:#b4549c"
         offset="1"
         id="stop384" /><stop
         style="stop-opacity:1;stop-color:#b4549c"
         offset="1"
         id="stop386" /></linearGradient></defs><sodipodi:namedview
     pagecolor="#ffffff"
     bordercolor="#666666"
     borderopacity="1"
     objecttolerance="10"
     gridtolerance="10"
     guidetolerance="10"
     inkscape:pageopacity="0"
     inkscape:pageshadow="2"
     inkscape:window-width="640"
     inkscape:window-height="480"
     id="namedview4" /><g
     id="g10"
     inkscape:groupmode="layer"
     inkscape:label="logo RJI"
     transform="matrix(1.3333333,0,0,-1.3333333,0,1122.52)"><g
       id="g12"><g
         id="g14"><g
           id="g20"><g
             id="g22"><path
               d="m 214.457,408.561 c 0.499,-3.907 0.768,-6.767 2.086,-10.68 v 0 c 1.027,-3.049 2.593,-6.449 3.106,-6.298 v 0 c 0.378,0.111 0.038,2.103 -0.893,8.851 v 0 c -0.421,3.041 -0.75,5.523 -0.96,7.126 v 0 c 0.367,-0.556 0.823,-1.314 1.268,-2.254 v 0 c 0.084,-0.178 0.464,-0.986 0.892,-2.25 v 0 c 0.353,-1.042 0.536,-1.809 0.9,-3.343 v 0 c 0,0 0.684,-2.89 0.774,-4.566 v 0 c 0.05,-0.923 -0.019,-0.944 -0.065,-3.107 v 0 c -0.034,-1.565 -0.013,-2.263 0,-4.607 v 0 c 0,-0.036 0,-0.018 0,-5.719 v 0 c -0.001,-13.361 0,-13.319 -0.003,-13.721 v 0 c -0.044,-7.275 -0.175,-7.413 -0.131,-12.831 v 0 c 0.03,-3.827 0.078,-5.411 0.131,-9.108 v 0 c 0.055,-3.8 0.095,-9.336 0.003,-16.218 v 0 c 0.773,1.156 1.575,2.328 2.41,3.512 v 0 c 0.81,1.152 1.619,2.271 2.423,3.357 v 0 c 0.575,0.86 1.305,2.004 2.089,3.389 v 0 c 0.657,1.162 1.869,3.323 2.979,6.172 v 0 c 0.811,2.084 1.742,4.983 2.318,8.591 v 0 c 0.18,-2.32 0.383,-5.304 0.53,-8.785 v 0 c 0.107,-2.623 0.265,-6.463 0.204,-11.446 v 0 c -0.097,-8.024 -0.689,-13.915 -0.87,-15.61 v 0 c -0.389,-3.669 -0.8,-6.324 -1.212,-8.515 v 0 c -0.333,-1.811 -0.7,-3.758 -1.411,-6.265 v 0 c -0.602,-2.159 -1.2,-4.246 -2.424,-6.754 v 0 c -1.162,-2.371 -2.234,-4.577 -4.467,-6.297 v 0 c -1.438,-1.109 -2.832,-1.612 -3.739,-1.863 v 0 c 3.671,6.742 5.735,12.807 6.931,17.145 v 0 c 1.765,6.413 2.216,11.169 2.313,12.214 v 0 c 0.366,4.117 0.276,7.644 0.09,10.261 v 0 c -0.441,-1.284 -1.095,-3.223 -1.856,-5.602 v 0 c -0.857,-2.675 -1.427,-4.563 -1.906,-6.149 v 0 c -0.006,-0.007 -1.326,-4.266 -3.977,-12.8 v 0 c -1.026,-3.306 -2.046,-6.605 -3.073,-9.913 v 0 c -0.576,-1.843 -1.145,-3.686 -1.72,-5.529 v 0 c 7.6,0.024 15.2,0.047 22.801,0.072 v 0 c 0.045,0.44 0.116,1.044 0.23,1.755 v 0 c 0.127,0.79 0.26,1.416 0.437,2.194 v 0 c 0.151,0.665 0.308,1.359 0.514,2.19 v 0 c 0.134,0.535 0.265,1.037 0.399,1.536 v 0 c 0.648,2.407 1.194,4.444 1.314,4.419 v 0 c 0.09,-0.02 -0.098,-1.229 -0.401,-3.179 v 0 c -0.182,-1.169 -0.338,-2.343 -0.532,-3.51 v 0 c 0,-10e-4 -0.138,-0.827 -0.075,-3.017 v 0 c 0.01,-0.343 0.026,-0.659 0.178,-0.713 v 0 c 0.386,-0.136 1.301,1.557 1.465,1.863 v 0 c 0.702,1.297 1.026,2.407 1.166,2.904 v 0 c 0.568,2.026 0.809,3.691 0.925,4.579 v 0 c 0.074,0.564 0.127,1.031 0.167,1.459 v 0 c 0.158,1.659 0.14,2.134 0.294,3.989 v 0 c 0.084,1.007 0.168,1.783 0.225,2.308 v 0 c 0.12,1.089 0.239,2.021 0.338,2.742 v 0 c -2.019,-3.081 -3.474,-5.298 -3.981,-6.058 v 0 c -0.097,-0.146 -0.381,-0.571 -0.737,-1.151 v 0 c -0.094,-0.153 -0.317,-0.517 -0.593,-0.998 v 0 c -0.078,-0.135 -0.338,-0.59 -0.663,-1.2 v 0 c -0.235,-0.441 -0.435,-0.836 -0.598,-1.168 v 0 c -0.006,4.155 -0.01,10.56 -0.013,18.469 v 0 c -10e-4,2.079 0,9.076 0.001,13.439 v 0 c 0.004,25.584 -0.011,22.779 0,25.644 v 0 c 0.046,12.324 0.157,17.692 0.052,29.401 v 0 c -0.019,2.111 -0.04,3.844 -0.055,4.973 v 0 c -1.379,-1.853 -2.839,-4.017 -4.283,-6.507 v 0 c -1.348,-2.328 -2.46,-4.559 -3.377,-6.61 v 0 c -0.002,0.76 10e-4,1.912 0.037,3.313 v 0 c 0.046,1.815 0.122,3.043 0.191,4.279 v 0 c 0.303,5.451 0.208,6.093 0.507,9.967 v 0 c 0.13,1.688 0.239,2.751 0.382,3.846 v 0 c 0.232,1.78 0.503,3.254 0.717,4.303 v 0 h -6.148 -5.706 c -0.306,1.276 -0.79,2.936 -1.577,4.803 v 0 c -0.254,0.602 -1.309,3.053 -3.319,5.957 v 0 c -1.11,1.604 -2.706,3.626 -4.915,5.703 v 0 c 0.932,-5.257 1.526,-9.498 1.893,-12.384"
               style="fill:url(#linearGradient36);stroke:none"
               id="path38" /></g></g></g></g><g
       id="g40"><g
         id="g42"
         clip-path="url(#clipPath46)"><g
           id="g48"
           transform="translate(242.6611,304.4816)"><path
             d="M 0,0 3.979,6.06 3.986,6.069 3.984,6.058 C 3.75,4.247 3.536,2.435 3.394,0.614 3.25,-1.205 3.166,-3.031 2.909,-4.84 2.647,-6.646 2.274,-8.442 1.67,-10.167 c -0.316,-0.857 -0.723,-1.68 -1.194,-2.462 -0.244,-0.384 -0.475,-0.788 -0.829,-1.087 -0.078,-0.068 -0.232,-0.136 -0.318,-0.028 -0.074,0.097 -0.083,0.217 -0.098,0.329 -0.021,0.228 -0.02,0.457 -0.027,0.685 -0.013,0.912 -0.025,1.828 0.091,2.736 l 0.409,2.708 0.411,2.707 0.091,0.678 0.03,0.339 c 0.002,0.056 0.007,0.116 -0.004,0.166 -0.003,0.034 -0.049,-0.049 -0.066,-0.093 -0.168,-0.421 -0.287,-0.865 -0.415,-1.302 -0.963,-3.517 -1.966,-7.045 -2.396,-10.672 l -0.002,-0.016 h -0.017 l -22.8,-0.082 h -0.037 l 0.011,0.036 8.767,28.259 -0.007,-0.013 1.824,5.893 1.933,5.86 0.067,0.202 0.015,-0.213 c 0.246,-3.432 0.215,-6.882 -0.09,-10.309 -0.327,-3.425 -0.958,-6.817 -1.779,-10.156 -1.646,-6.681 -4.172,-13.14 -7.456,-19.185 l -0.066,0.083 c 2.826,0.75 5.225,2.741 6.665,5.268 1.447,2.527 2.672,5.198 3.463,8.009 0.841,2.796 1.518,5.638 1.958,8.526 0.396,2.892 0.853,5.777 1.199,8.675 0.284,2.905 0.479,5.819 0.608,8.736 0.121,2.917 0.218,5.837 0.12,8.757 l -0.16,8.759 -0.531,8.743 0.165,-0.006 c -0.732,-4.645 -2.257,-9.163 -4.483,-13.305 -0.538,-1.045 -1.153,-2.046 -1.777,-3.043 -0.614,-1.003 -1.216,-2.015 -1.931,-2.947 -1.391,-1.889 -2.709,-3.829 -4.033,-5.765 l -0.17,-0.249 v 0.302 l -0.028,17.485 -0.117,8.744 c -0.027,2.916 0.077,5.831 0.111,8.744 0.064,5.826 0.022,11.657 0.038,17.486 l 0.004,8.746 c -0.005,0.728 0.004,1.458 0.035,2.186 0.026,0.732 0.084,1.453 0.013,2.175 -0.134,1.438 -0.435,2.881 -0.749,4.284 l -0.002,0.007 -0.549,2.04 c -0.185,0.679 -0.34,1.368 -0.631,2.011 l -0.389,0.98 c -0.121,0.331 -0.256,0.655 -0.445,0.953 l -1.033,1.838 0.143,0.054 1.573,-11.572 c 0.131,-0.964 0.265,-1.929 0.365,-2.899 0.021,-0.492 0.15,-0.96 -0.03,-1.494 -0.042,-0.08 -0.15,-0.112 -0.234,-0.083 -0.081,0.02 -0.123,0.072 -0.185,0.108 -0.088,0.093 -0.177,0.186 -0.246,0.289 -0.149,0.199 -0.273,0.411 -0.395,0.624 -0.935,1.719 -1.636,3.543 -2.268,5.387 -0.624,1.848 -1.081,3.751 -1.393,5.675 -0.324,1.923 -0.501,3.863 -0.796,5.786 l -1.761,11.543 -0.027,0.177 0.13,-0.122 c 2.362,-2.224 4.427,-4.765 6.104,-7.542 1.697,-2.766 2.97,-5.794 3.718,-8.953 l -0.053,0.042 11.853,-0.005 h 0.059 l -0.01,-0.06 c -0.334,-2.122 -0.774,-4.229 -0.925,-6.377 -0.242,-2.135 -0.359,-4.283 -0.439,-6.43 l -0.298,-6.445 -0.142,-3.221 -0.037,-3.224 -0.078,0.016 c 2.074,4.633 4.637,9.05 7.669,13.123 l 0.062,0.083 10e-4,-0.104 c 0.059,-3.83 0.055,-7.66 0.039,-11.491 L -2.557,64.43 -2.584,41.447 -2.59,-4.516 -2.593,-4.515 c 0.388,0.777 0.796,1.543 1.224,2.299 C -0.938,-1.462 -0.475,-0.728 0,0 m 0,0 c -0.475,-0.728 -0.937,-1.462 -1.367,-2.217 -0.427,-0.756 -0.835,-1.522 -1.223,-2.3 l -0.004,0.001 -0.028,45.963 0.012,22.982 0.016,11.491 c 0.013,3.83 0.015,7.66 -0.047,11.49 l 0.063,-0.02 c -3.026,-4.071 -5.583,-8.485 -7.651,-13.115 l -0.08,-0.178 0.002,0.195 0.035,3.227 0.14,3.223 0.293,6.444 c 0.079,2.149 0.194,4.298 0.436,6.437 0.149,2.149 0.588,4.261 0.921,6.387 l 0.049,-0.06 -11.853,-0.005 h -0.044 l -0.009,0.042 c -0.748,3.149 -2.017,6.162 -3.711,8.918 -1.673,2.768 -3.733,5.299 -6.089,7.513 l 0.102,0.056 1.77,-11.546 c 0.297,-1.925 0.475,-3.865 0.8,-5.782 0.313,-1.918 0.769,-3.812 1.391,-5.653 0.631,-1.835 1.335,-3.66 2.262,-5.36 0.119,-0.21 0.243,-0.419 0.385,-0.61 0.115,-0.172 0.358,-0.434 0.429,-0.317 0.13,0.393 0.037,0.932 0.005,1.398 -0.101,0.964 -0.235,1.929 -0.367,2.893 l -1.581,11.571 -0.056,0.407 0.199,-0.354 1.044,-1.852 c 0.19,-0.301 0.326,-0.627 0.449,-0.96 l 0.392,-0.989 c 0.294,-0.647 0.451,-1.339 0.637,-2.021 l 0.552,-2.049 -0.002,0.007 c 0.325,-1.439 0.621,-2.858 0.76,-4.322 0.073,-0.733 0.015,-1.47 -0.011,-2.194 -0.03,-0.726 -0.038,-1.455 -0.033,-2.183 l 0.003,-8.743 c -0.012,-5.83 0.034,-11.657 -0.026,-17.489 -0.032,-2.916 -0.134,-5.827 -0.105,-8.74 l 0.122,-8.742 0.015,-17.49 -0.171,0.052 c 1.326,1.938 2.648,3.878 4.04,5.767 0.717,0.932 1.315,1.938 1.927,2.936 0.623,0.992 1.237,1.99 1.774,3.032 2.221,4.125 3.742,8.621 4.474,13.248 l 0.119,0.752 0.045,-0.758 0.525,-8.751 0.154,-8.765 c 0.095,-2.921 -0.003,-5.844 -0.126,-8.763 -0.132,-2.919 -0.329,-5.835 -0.615,-8.745 -0.349,-2.901 -0.809,-5.789 -1.207,-8.683 -0.442,-2.888 -1.124,-5.742 -1.968,-8.539 -0.796,-2.821 -2.026,-5.498 -3.482,-8.035 -1.45,-2.546 -3.882,-4.563 -6.737,-5.317 l -0.129,-0.034 0.063,0.117 c 3.284,6.034 5.811,12.484 7.461,19.153 0.822,3.335 1.455,6.722 1.784,10.141 0.306,3.422 0.34,6.867 0.097,10.295 l 0.082,-0.011 -1.937,-5.856 -1.828,-5.891 -0.008,-0.014 -8.773,-28.226 -0.025,0.035 22.8,0.064 -0.018,-0.017 c 0.433,3.632 1.439,7.16 2.405,10.676 0.129,0.438 0.246,0.88 0.417,1.305 0.01,0.028 0.025,0.053 0.04,0.079 0,0.022 0.069,0.072 0.079,0.011 0.013,-0.061 0.007,-0.117 0.006,-0.175 L 0.233,-3.904 0.143,-4.583 -0.271,-7.29 -0.682,-9.997 c -0.116,-0.904 -0.105,-1.821 -0.093,-2.732 0.007,-0.229 0.006,-0.458 0.027,-0.684 0.014,-0.11 0.025,-0.231 0.093,-0.318 0.073,-0.094 0.21,-0.038 0.29,0.032 0.348,0.292 0.582,0.698 0.824,1.08 0.472,0.781 0.879,1.601 1.195,2.458 0.605,1.722 0.978,3.518 1.242,5.323 0.257,1.808 0.343,3.634 0.488,5.453 0.144,1.821 0.36,3.633 0.595,5.444 L 3.984,6.057 Z"
             style="fill:#1d1d1b;fill-opacity:1;fill-rule:nonzero;stroke:none"
             id="path50" /></g></g></g><g
       id="g52"><g
         id="g54"><g
           id="g60"><g
             id="g62"><path
               d="m 236.766,293.018 c 0.493,-2.323 2.551,-3.58 3.004,-3.842 v 0 l 0.226,10.076 c -2.452,-1.449 -3.723,-3.909 -3.23,-6.234"
               style="fill:url(#linearGradient78);stroke:none"
               id="path80" /></g></g></g></g><g
       id="g82"><g
         id="g84"><g
           id="g90"><g
             id="g92"><path
               d="m 247.356,407.327 c -0.009,-0.625 -0.009,-1.268 0,-1.926 v 0 c 0.012,-0.766 0.037,-1.512 0.072,-2.232 v 0 c 0.126,0.359 0.447,1.117 1.189,1.722 v 0 c 0.977,0.796 2.037,0.793 2.421,0.786 v 0 c 1.023,-0.02 1.752,-0.442 2.056,-0.625 v 0 c 1.827,-1.29 3.199,-3.623 3.199,-3.623 v 0 c 0.571,-0.969 1.506,-2.733 2.52,-5.542 v 0 c 0.766,-2.307 1.635,-5.322 2.332,-8.918 v 0 c 0.168,-0.868 0.706,-3.728 1.073,-7.776 v 0 c 0.34,-3.762 0.568,-8.945 0.114,-15.226 v 0 c -0.29,-2.188 -0.579,-4.375 -0.868,-6.563 v 0 c -0.551,-4.167 -1.756,-7.311 -2.671,-9.282 v 0 c -1.347,-2.902 -2.937,-6.328 -6.519,-8.636 v 0 c -1.913,-1.231 -3.739,-1.724 -4.918,-1.945 v 0 l 0.059,-2.009 h 1.27 c 0.034,-0.104 1.22,-3.851 1.252,-3.955 v 0 c 1.77,-5.588 3.495,-11.19 5.307,-16.762 v 0 c 4.722,-14.504 7.249,-19.278 5.374,-21.035 v 0 c -0.8,-0.751 -2.099,-0.666 -3.344,-0.336 v 0 c 0.291,-0.55 0.581,-1.1 0.872,-1.65 v 0 c 3.274,-0.049 9.24,-0.126 15.921,-0.145 v 0 c 3.278,-0.009 6.692,-0.004 11.107,0.137 v 0 c 0.755,0.025 1.376,0.047 1.786,0.062 v 0 c -0.114,0.533 -0.228,1.064 -0.342,1.596 v 0 c -0.539,0.028 -1.085,0.051 -1.638,0.069 v 0 c -0.677,0.024 -1.344,0.04 -2,0.049 v 0 c -0.303,0.457 -0.736,1.146 -1.204,2.016 v 0 c -1.4,2.601 -2.039,4.798 -2.272,5.684 v 0 c -0.914,3.483 -2.165,6.854 -3.183,10.304 v 0 c -1.157,3.916 -1.536,4.726 -3.392,10.376 v 0 c -1.343,4.086 -3.198,9.911 -5.328,17.22 v 0 c 1.397,0.898 3.285,2.3 5.172,4.391 v 0 c 0.672,0.745 3.17,3.6 5.181,8.511 v 0 c 2.784,6.791 2.778,12.982 2.734,17.302 v 0 c -0.053,5.133 -0.22,13.079 -4.499,21.456 v 0 c -1.104,2.16 -3.065,5.914 -6.989,9.396 v 0 c -0.814,0.721 -3.652,3.153 -7.989,4.952 v 0 c -0.863,0.358 -3.805,1.529 -7.859,2.02 v 0 c -1.354,0.163 -2.6,0.222 -3.705,0.222 v 0 c -0.852,0 -1.62,-0.035 -2.291,-0.085"
               style="fill:url(#linearGradient106);stroke:none"
               id="path108" /></g></g></g></g><g
       id="g110"><g
         id="g112"
         clip-path="url(#clipPath116)"><g
           id="g118"
           transform="translate(253.0947,405.0519)"><path
             d="M 0,0 C -0.973,0.616 -2.21,0.794 -3.312,0.457 -4.423,0.129 -5.291,-0.802 -5.661,-1.885 l -0.011,-0.033 -0.001,0.035 c -0.056,1.386 -0.09,2.772 -0.076,4.158 v 0.01 l 0.01,10e-4 c 3.824,0.291 7.697,-0.149 11.368,-1.26 3.67,-1.114 7.1,-2.997 10.049,-5.448 2.938,-2.477 5.292,-5.599 7.051,-9.006 1.813,-3.381 3.127,-7.028 3.894,-10.788 0.789,-3.76 1.013,-7.611 1.036,-11.441 0.068,-3.828 -0.084,-7.693 -0.906,-11.451 -0.81,-3.752 -2.213,-7.385 -4.218,-10.665 -1.978,-3.299 -4.738,-6.123 -7.975,-8.2 l 0.041,0.112 3.572,-11.51 1.787,-5.754 1.922,-5.71 c 0.657,-1.899 1.23,-3.833 1.81,-5.751 l 1.847,-5.736 c 0.301,-0.96 0.592,-1.923 0.857,-2.894 0.251,-0.975 0.537,-1.927 0.895,-2.863 0.351,-0.935 0.757,-1.85 1.209,-2.74 0.446,-0.896 1.008,-1.725 1.506,-2.591 l -0.119,0.065 c 1.215,-0.023 2.43,-0.055 3.644,-0.114 l 0.114,-0.006 0.024,-0.111 0.343,-1.595 0.037,-0.174 -0.178,-0.008 c -2.401,-0.109 -4.805,-0.077 -7.206,-0.123 -2.402,-0.012 -4.805,-0.087 -7.207,-0.049 L 5.049,-113.38 H 4.977 l -0.034,0.066 -0.87,1.65 -0.128,0.241 0.265,-0.068 c 0.927,-0.238 1.959,-0.4 2.814,0.014 0.419,0.207 0.721,0.593 0.878,1.029 0.12,0.452 0.151,0.937 0.094,1.42 -0.221,1.938 -0.917,3.814 -1.513,5.686 -1.262,3.738 -2.584,7.461 -3.813,11.214 -1.232,3.752 -2.389,7.526 -3.587,11.289 l -3.564,11.296 0.072,-0.053 -1.271,0.001 h -0.072 l -0.002,0.073 -0.057,2.008 -0.001,0.063 0.061,0.011 c 2.899,0.526 5.612,2.025 7.583,4.22 1.995,2.193 3.212,4.95 4.395,7.644 1.119,2.735 1.831,5.63 2.179,8.566 0.354,2.937 0.9,5.857 0.958,8.82 0.259,5.91 -0.023,11.85 -0.918,17.701 -0.448,2.925 -1.1,5.818 -1.916,8.662 -0.792,2.849 -1.857,5.636 -3.336,8.202 L 3.195,-3.626 C 2.336,-2.257 1.312,-0.96 0,0 M 0,0 C 1.314,-0.956 2.342,-2.255 3.202,-3.619 V -3.62 c 1.485,-2.565 2.555,-5.352 3.354,-8.199 0.82,-2.845 1.479,-5.738 1.932,-8.663 0.908,-5.853 1.2,-11.796 0.952,-17.712 -0.052,-2.968 -0.592,-5.89 -0.941,-8.827 -0.343,-2.943 -1.052,-5.85 -2.17,-8.597 -1.181,-2.702 -2.393,-5.469 -4.403,-7.688 -1.984,-2.219 -4.722,-3.739 -7.651,-4.276 l 0.059,0.073 0.061,-2.009 -0.075,0.072 1.271,0.002 h 0.055 l 0.017,-0.053 3.586,-11.289 c 1.205,-3.759 2.369,-7.532 3.607,-11.28 1.236,-3.749 2.563,-7.466 3.835,-11.206 0.6,-1.879 1.301,-3.742 1.534,-5.736 0.059,-0.497 0.032,-1.013 -0.101,-1.513 -0.173,-0.49 -0.523,-0.934 -0.993,-1.166 -0.962,-0.461 -2.032,-0.275 -2.983,-0.037 l 0.138,0.173 0.873,-1.649 -0.106,0.064 14.406,-0.117 c 2.402,-0.033 4.801,0.046 7.202,0.064 2.399,0.049 4.8,0.022 7.198,0.136 l -0.14,-0.181 -0.341,1.595 0.138,-0.117 c -1.21,0.061 -2.422,0.096 -3.633,0.121 l -0.083,0.002 -0.036,0.064 c -0.502,0.875 -1.068,1.715 -1.517,2.621 -0.455,0.901 -0.864,1.826 -1.218,2.771 -0.357,0.943 -0.649,1.918 -0.896,2.889 -0.262,0.968 -0.55,1.928 -0.849,2.886 l -1.836,5.74 c -0.579,1.928 -1.144,3.849 -1.797,5.749 l -1.911,5.716 -1.777,5.759 -3.552,11.521 -0.022,0.07 0.064,0.041 c 3.218,2.056 5.96,4.848 7.932,8.124 2,3.258 3.404,6.872 4.218,10.607 0.826,3.741 0.985,7.591 0.924,11.416 -0.015,3.828 -0.232,7.669 -1.012,11.421 -0.758,3.752 -2.059,7.391 -3.864,10.77 -1.748,3.403 -4.089,6.519 -7.015,8.996 -2.937,2.451 -6.358,4.338 -10.02,5.457 -3.663,1.116 -7.532,1.564 -11.353,1.28 l 0.009,0.01 c -0.017,-1.386 0.014,-2.772 0.068,-4.157 l -0.013,0.002 c 0.373,1.085 1.245,2.017 2.36,2.344 C -2.209,0.799 -0.971,0.617 0,0"
             style="fill:#1d1d1b;fill-opacity:1;fill-rule:nonzero;stroke:none"
             id="path120" /></g></g></g><g
       id="g122"><g
         id="g124"><g
           id="g130"><g
             id="g132"><path
               d="m 240.236,405.375 c -1.396,-0.919 -2.127,-2.043 -2.378,-2.457 v 0 c -0.17,-0.282 -0.542,-0.939 -0.804,-1.856 v 0 c -0.467,-1.627 -0.304,-3.065 -0.119,-3.943 v 0 c 0.307,1.114 0.799,2.466 1.614,3.895 v 0 c 1.643,2.881 3.787,4.653 5.175,5.615 v 0 c -0.723,-0.08 -2.085,-0.329 -3.488,-1.254"
               style="fill:url(#linearGradient146);stroke:none"
               id="path148" /></g></g></g></g><g
       id="g150"><g
         id="g152"
         clip-path="url(#clipPath156)"><g
           id="g158"
           transform="translate(238.5493,401.0138)"><path
             d="m 0,0 c -0.815,-1.429 -1.308,-2.781 -1.614,-3.896 -0.185,0.879 -0.347,2.318 0.118,3.944 0.264,0.917 0.635,1.574 0.805,1.856 0.25,0.414 0.982,1.537 2.378,2.457 C 3.09,5.286 4.451,5.535 5.174,5.615 3.787,4.653 1.643,2.881 0,0 Z"
             style="fill:none;stroke:#1d1d1b;stroke-width:0.1;stroke-linecap:butt;stroke-linejoin:miter;stroke-miterlimit:10;stroke-dasharray:none;stroke-opacity:1"
             id="path160" /></g></g></g><g
       id="g162"><g
         id="g164"><g
           id="g170"><g
             id="g172"><path
               d="m 365.503,370.607 c -61.466,2.397 -84.075,-3.452 -90.713,-48.522 v 0 c 11.499,28.069 38.302,29.44 65.411,29.951 v 0 h 63.744 l -38.442,32.892 z"
               style="fill:url(#linearGradient194);stroke:none"
               id="path196" /></g></g></g></g><g
       id="g198"><g
         id="g200"
         clip-path="url(#clipPath204)"><g
           id="g206"
           transform="translate(274.7896,322.0851)"><path
             d="m 0,0 c 2.252,5.409 5.316,10.543 9.458,14.728 4.112,4.203 9.19,7.393 14.639,9.564 5.456,2.188 11.24,3.443 17.052,4.233 5.82,0.791 11.693,1.097 17.559,1.287 5.868,0.221 11.741,0.156 17.611,0.167 l 17.612,0.005 35.225,0.011 -0.029,-0.077 -38.439,32.894 0.066,0.031 -0.004,-14.321 v -0.037 l -0.038,10e-4 c -9.813,0.365 -19.638,0.627 -29.457,0.316 -9.792,-0.36 -19.681,-1.126 -29.109,-3.955 -4.685,-1.435 -9.26,-3.399 -13.243,-6.285 -2.036,-1.379 -3.826,-3.08 -5.54,-4.832 -0.782,-0.944 -1.654,-1.818 -2.349,-2.833 L 9.918,29.418 8.932,27.863 C 6.313,23.702 4.471,19.099 3.082,14.395 1.688,9.684 0.73,4.855 0,0 m 0,0 c 0.727,4.855 1.682,9.686 3.073,14.397 1.387,4.706 3.226,9.311 5.843,13.476 l 0.986,1.556 1.096,1.481 c 0.695,1.016 1.566,1.89 2.349,2.836 1.713,1.754 3.504,3.456 5.54,4.837 3.985,2.893 8.563,4.86 13.248,6.298 9.432,2.837 19.324,3.609 29.118,3.975 9.821,0.318 19.648,0.061 29.462,-0.297 l -0.038,-0.037 -0.004,14.321 v 0.089 l 0.068,-0.058 38.443,-32.89 0.09,-0.076 h -0.118 L 93.931,29.919 76.319,29.924 C 70.449,29.916 64.577,29.985 58.709,29.769 52.844,29.582 46.972,29.28 41.153,28.493 35.343,27.707 29.561,26.455 24.105,24.271 18.657,22.105 13.58,18.92 9.465,14.72 5.323,10.539 2.256,5.407 0,0"
             style="fill:#1d1d1b;fill-opacity:1;fill-rule:nonzero;stroke:none"
             id="path208" /></g><g
           id="g210"
           transform="translate(274.7896,322.0851)"><path
             d="M 0,0 C 4.622,30.552 16.773,43.073 43.76,47.238 62.501,46.041 78.706,39.451 88.318,29.951 H 67.181 C 39.337,29.439 11.811,28.069 0,0"
             style="fill:#b14c97;fill-opacity:1;fill-rule:evenodd;stroke:none"
             id="path212" /></g><g
           id="g214"
           transform="translate(274.7896,322.0851)"><path
             d="m 0,0 c 1.618,3.832 3.682,7.484 6.227,10.778 2.523,3.314 5.629,6.159 9.031,8.55 6.893,4.731 15.039,7.269 23.22,8.638 8.216,1.383 16.559,1.735 24.873,1.94 4.16,0.13 8.322,0.067 12.483,0.085 l 12.484,0.006 -0.032,-0.078 c -5.836,5.674 -13.114,9.678 -20.727,12.445 -7.642,2.761 -15.7,4.294 -23.801,4.842 h 0.006 C 37.966,46.287 32.203,44.926 26.793,42.611 25.435,42.055 24.154,41.324 22.831,40.689 21.567,39.945 20.319,39.163 19.096,38.354 l -1.74,-1.352 C 16.777,36.551 16.181,36.119 15.673,35.586 14.631,34.552 13.498,33.603 12.603,32.432 8.746,27.985 6.02,22.663 4.086,17.126 2.147,11.575 0.923,5.803 0,0 m 0,0 c 0.917,5.802 2.137,11.578 4.071,17.132 1.929,5.539 4.652,10.867 8.507,15.321 0.896,1.173 2.028,2.124 3.07,3.159 0.509,0.535 1.105,0.968 1.685,1.42 l 1.74,1.355 c 1.224,0.811 2.472,1.595 3.736,2.342 1.324,0.636 2.606,1.369 3.966,1.927 5.411,2.321 11.179,3.689 16.979,4.614 l 0.004,10e-4 h 0.004 C 51.87,46.729 59.934,45.203 67.588,42.445 75.213,39.683 82.509,35.681 88.35,29.984 l 0.08,-0.079 -0.112,10e-4 -12.484,0.005 C 71.674,29.896 67.512,29.964 63.353,29.837 55.04,29.641 46.699,29.295 38.486,27.921 30.307,26.56 22.164,24.031 15.271,19.31 11.869,16.923 8.762,14.081 6.236,10.771 3.688,7.48 1.622,3.831 0,0"
             style="fill:#1d1d1b;fill-opacity:1;fill-rule:nonzero;stroke:none"
             id="path216" /></g></g></g><g
       id="g218"><g
         id="g220"><g
           id="g226"><g
             id="g228"><path
               d="m 383.818,349.116 c 1.165,-35.381 -5.821,-42.275 -9.967,-46.114 v 0 c -12.874,-11.916 -34.582,-7.276 -41.126,-5.644 v 0 c 21.419,-8.409 44.691,-4.712 59.077,9.51 v 0 c 13.949,13.79 14.319,32.31 14.327,33.894 v 0 c 0.077,16.642 -8.65,27.948 -11.245,31.079 v 0 c 3.152,0.108 6.305,0.216 9.458,0.326 v 0 c -7.45,10.83 -14.901,21.66 -22.351,32.49 v 0 c 0.746,-22.676 1.081,-32.865 1.827,-55.541"
               style="fill:url(#linearGradient250);stroke:none"
               id="path252" /></g></g></g></g><g
       id="g254"><g
         id="g256"
         clip-path="url(#clipPath260)"><g
           id="g262"
           transform="translate(332.7246,297.3585)"><path
             d="m 0,0 c 5.955,-1.477 12.084,-2.314 18.225,-2.252 3.068,0.07 6.129,0.401 9.132,1.027 2.997,0.68 5.89,1.749 8.61,3.173 1.283,0.838 2.65,1.559 3.79,2.597 1.21,0.943 2.349,1.976 3.365,3.127 2.077,2.272 3.471,5.076 4.515,7.947 1.025,2.89 1.74,5.889 2.207,8.92 0.516,3.024 0.799,6.084 1.017,9.144 0.784,12.261 -0.116,24.541 -0.418,36.806 l -1.222,36.809 -0.005,0.152 0.087,-0.126 22.349,-32.491 0.045,-0.065 -0.079,-0.003 -9.457,-0.324 0.029,0.067 C 69.324,65.847 73.494,54.714 73.433,43.464 73.387,40.656 73.015,37.863 72.468,35.112 71.923,32.36 71.166,29.648 70.182,27.021 69.735,25.689 69.128,24.422 68.59,23.127 67.94,21.884 67.388,20.589 66.642,19.397 L 65.578,17.582 64.394,15.843 C 63.644,14.654 62.698,13.609 61.844,12.497 54.615,3.849 44.065,-1.646 33.045,-3.572 21.98,-5.552 10.427,-4.105 0,0 m 0,0 c 10.43,-4.1 21.982,-5.538 33.041,-3.552 11.016,1.933 21.555,7.43 28.772,16.075 0.852,1.112 1.796,2.157 2.545,3.344 l 1.183,1.738 1.062,1.815 c 0.744,1.19 1.294,2.485 1.943,3.726 0.537,1.295 1.143,2.562 1.588,3.893 0.982,2.625 1.736,5.335 2.279,8.085 0.545,2.747 0.915,5.539 0.959,8.341 0.055,11.234 -4.117,22.348 -11.244,30.991 l -0.052,0.064 0.082,0.002 9.457,0.33 -0.034,-0.068 -22.352,32.489 0.082,0.028 1.2,-36.809 C 50.805,58.227 51.696,45.946 50.905,33.68 50.686,30.619 50.4,27.559 49.882,24.532 49.414,21.5 48.696,18.499 47.668,15.607 46.621,12.734 45.225,9.928 43.143,7.653 42.125,6.502 40.984,5.469 39.772,4.525 38.631,3.487 37.263,2.767 35.978,1.929 33.255,0.505 30.358,-0.562 27.361,-1.241 24.355,-1.865 21.294,-2.194 18.225,-2.263 12.083,-2.321 5.954,-1.48 0,0"
             style="fill:#1d1d1b;fill-opacity:1;fill-rule:nonzero;stroke:none"
             id="path264" /></g><g
           id="g266"
           transform="translate(335.6123,296.5499)"><path
             d="m 0,0 c 0.003,0.014 8.354,-3.331 20.091,-3.021 7.418,0.195 21.646,0.571 31.787,11.234 7.524,7.911 9.161,17.663 9.575,22.596 1.01,12.064 -1.164,21.264 -2.156,24.06 -3.298,9.287 -8.652,15.356 -11.735,18.39 0.035,-1.541 0.093,-3.909 0.187,-6.802 0.241,-7.435 0.418,-9.233 0.555,-14.122 0.114,-4.086 0.221,-7.937 0.032,-13.165 0,0 -0.237,-6.478 -1.165,-13.165 -0.144,-1.035 -0.39,-2.684 -0.866,-4.758 -0.29,-1.263 -0.656,-2.831 -1.368,-4.784 C 44.852,16.229 44.122,14.245 43.213,12.537 41.115,8.593 38.001,6.003 36.771,5 31.447,0.651 25.229,-0.999 21.495,-1.66 9.74,-3.741 -0.005,-0.026 0,0"
             style="fill:#b14c97;fill-opacity:1;fill-rule:evenodd;stroke:none"
             id="path268" /></g><g
           id="g270"
           transform="translate(335.6123,296.5499)"><path
             d="m 0,0 c 8.681,-2.9 18.322,-3.102 27.038,-0.237 4.351,1.44 8.405,3.8 11.702,6.993 1.648,1.59 3.108,3.386 4.229,5.386 1.103,2.005 1.955,4.149 2.608,6.343 1.213,4.421 1.837,8.984 2.246,13.545 0.425,4.565 0.62,9.15 0.578,13.734 -0.077,9.17 -0.738,18.323 -0.885,27.494 l -0.002,0.114 0.081,-0.08 c 3.756,-3.699 6.921,-8.005 9.294,-12.714 1.173,-2.358 2.237,-4.784 2.945,-7.328 0.681,-2.549 1.124,-5.153 1.431,-7.771 0.612,-5.235 0.631,-10.536 0.113,-15.78 C 60.803,24.464 59.289,19.304 56.694,14.707 55.401,12.41 53.838,10.265 52.029,8.347 50.19,6.459 48.181,4.734 45.96,3.309 41.498,0.489 36.422,-1.275 31.225,-2.117 28.627,-2.557 25.999,-2.796 23.368,-2.919 20.737,-3.031 18.101,-3.104 15.469,-2.963 10.215,-2.666 4.969,-1.761 0,0 m 0,0 c 4.97,-1.757 10.217,-2.657 15.47,-2.949 2.631,-0.14 5.266,-0.065 7.897,0.05 2.63,0.126 5.257,0.367 7.854,0.808 5.193,0.846 10.263,2.614 14.717,5.434 2.217,1.425 4.223,3.149 6.057,5.035 1.804,1.917 3.364,4.06 4.653,6.355 2.587,4.592 4.094,9.746 4.664,14.974 0.513,5.238 0.49,10.534 -0.126,15.764 -0.31,2.613 -0.754,5.215 -1.435,7.757 -0.708,2.531 -1.773,4.957 -2.945,7.308 -2.375,4.696 -5.534,8.992 -9.277,12.69 l 0.079,0.034 C 47.749,64.091 48.401,54.937 48.472,45.764 48.51,41.178 48.31,36.591 47.882,32.024 47.468,27.463 46.84,22.896 45.622,18.472 44.966,16.275 44.111,14.131 43.004,12.121 41.88,10.118 40.415,8.321 38.765,6.73 35.461,3.537 31.399,1.178 27.045,-0.26 18.321,-3.118 8.678,-2.908 0,0"
             style="fill:#1d1d1b;fill-opacity:1;fill-rule:nonzero;stroke:none"
             id="path272" /></g><g
           id="g274"
           transform="translate(344.0146,296.1974)"><path
             d="m 0,0 c -5.677,-5.222 -13.208,-4.366 -28.241,-4.537 h -43.362 c 0.715,30.951 8.359,51.092 43.532,56.824 C -40.451,47.723 -46.84,37.682 -48.324,16.06 h 27.329 c 2.395,0 5.619,0 7.588,1.568 2.224,1.797 4.221,4.906 4.935,7.36 C 5.677,23.219 6.618,10.012 0,0"
             style="fill:#3a398e;fill-opacity:1;fill-rule:evenodd;stroke:none"
             id="path276" /></g><g
           id="g278"
           transform="translate(344.0146,296.1974)"><path
             d="m 0,0 c 1.491,2.282 2.651,4.791 3.325,7.434 0.669,2.634 0.851,5.432 0.225,8.094 -0.627,2.657 -2.224,5.064 -4.44,6.646 -2.212,1.606 -4.896,2.412 -7.585,2.79 l 0.027,0.017 c -0.537,-1.769 -1.466,-3.395 -2.567,-4.872 -0.556,-0.734 -1.172,-1.426 -1.851,-2.051 -0.659,-0.646 -1.48,-1.132 -2.359,-1.414 -1.765,-0.584 -3.642,-0.609 -5.476,-0.62 l -5.525,-0.004 -22.098,-0.016 h -0.061 l 0.005,0.059 c 0.279,3.681 0.678,7.355 1.351,10.987 0.714,3.62 1.696,7.206 3.198,10.586 1.497,3.37 3.54,6.55 6.281,9.052 2.711,2.527 5.986,4.397 9.448,5.683 l 0.045,-0.171 c -6.563,-1.12 -13.098,-2.771 -19.104,-5.694 -2.995,-1.455 -5.855,-3.211 -8.415,-5.344 -2.565,-2.125 -4.836,-4.6 -6.734,-7.338 -3.836,-5.478 -6.003,-11.944 -7.311,-18.461 -1.295,-6.549 -1.754,-13.233 -1.928,-19.901 l -0.053,0.054 36.306,-0.027 18.153,0.05 c 3.021,0.054 6.06,0.121 9.039,0.668 C -5.123,-3.303 -2.237,-2.057 0,0 m 0,0 c -2.234,-2.061 -5.12,-3.311 -8.102,-3.806 -2.979,-0.551 -6.019,-0.623 -9.041,-0.681 L -35.296,-4.563 -71.602,-4.59 h -0.055 l 0.002,0.054 c 0.164,6.672 0.614,13.363 1.902,19.926 1.3,6.53 3.463,13.018 7.309,18.528 1.901,2.752 4.18,5.243 6.754,7.381 2.57,2.147 5.44,3.916 8.445,5.381 6.023,2.951 12.586,4.578 19.16,5.695 l 0.045,-0.171 c -3.448,-1.275 -6.703,-3.128 -9.399,-5.634 -2.727,-2.481 -4.764,-5.639 -6.26,-8.993 -1.501,-3.364 -2.486,-6.939 -3.203,-10.552 -0.677,-3.624 -1.081,-7.293 -1.366,-10.968 l -0.056,0.059 22.098,-0.015 5.525,-0.004 c 1.832,0.007 3.704,0.03 5.456,0.607 0.874,0.281 1.68,0.755 2.339,1.399 0.677,0.62 1.291,1.309 1.847,2.041 1.098,1.469 2.028,3.09 2.564,4.85 l 0.007,0.021 0.019,-0.003 c 2.695,-0.383 5.385,-1.195 7.601,-2.809 2.22,-1.591 3.817,-4.008 4.441,-6.67 C 4.196,12.866 4.011,10.065 3.337,7.431 2.658,4.787 1.494,2.28 0,0"
             style="fill:#1d1d1b;fill-opacity:1;fill-rule:nonzero;stroke:none"
             id="path280" /></g></g></g><g
       id="g282"><g
         id="g284"><g
           id="g290"><g
             id="g292"><path
               d="m 280.611,291.646 h 35.153 c 15.011,0.172 22.532,-0.684 28.2,4.537 v 0 c 2.991,4.535 4.416,9.698 3.819,14.177 v 0 c -1.796,0.085 -3.62,0.114 -5.443,0.114 v 0 c -26.236,0 -49.166,-7.56 -61.729,-18.828"
               style="fill:url(#linearGradient310);stroke:none"
               id="path312" /></g></g></g></g><g
       id="g314"><g
         id="g316"
         clip-path="url(#clipPath320)"><g
           id="g322"><g
             id="g324" /><g
             id="g336"><g
               clip-path="url(#clipPath328)"
               opacity="0.399994"
               id="g334"><g
                 transform="translate(275.0942,314.2648)"
                 id="g332"><path
                   d="m 0,0 c 0.075,0.32 0.182,0.762 0.318,1.286 0.15,0.578 0.551,2.112 1.121,3.789 0.199,0.588 1.015,2.946 2.468,5.852 0,0 1.143,2.285 2.301,4.044 0.328,0.499 0.656,0.962 0.656,0.962 0.099,0.138 0.489,0.685 1.232,1.624 0.57,0.72 1.023,1.262 1.109,1.364 2.567,3.046 6.367,5.777 6.367,5.777 1.21,0.869 3.569,2.46 7.452,4.229 3.492,1.59 9.042,3.698 16.552,4.915 -0.673,-0.277 -1.458,-0.629 -2.318,-1.075 -0.26,-0.135 -1.052,-0.55 -1.947,-1.106 -0.633,-0.393 -2.295,-1.437 -4,-3.011 C 30.127,27.557 28.403,25.728 26.822,22.99 21.875,20.953 14.486,17.122 7.628,9.994 4.273,6.507 1.805,3.02 0,0"
                   style="fill:#b7599f;fill-opacity:1;fill-rule:evenodd;stroke:none"
                   id="path330" /></g></g></g></g><g
           id="g338"
           transform="translate(310.3623,323.1115)"><path
             d="M 0,0 C 5.135,13.892 8.387,18.314 27.242,18.314 41.369,18.28 55.495,18.246 69.621,18.212 67.104,17.231 64.183,15.867 61.101,13.951 56.792,11.272 53.521,8.355 51.16,5.904 49.323,2.94 47.473,-0.302 45.674,-3.823 42.81,-9.433 40.577,-14.772 38.824,-19.655 44.559,5.79 13.664,0 0,0"
             style="fill:#b85ba0;fill-opacity:1;fill-rule:evenodd;stroke:none"
             id="path340" /></g><g
           id="g342"
           transform="translate(310.3623,323.1115)"><path
             d="m 0,0 c 4.433,0.043 8.853,0.428 13.283,0.53 4.424,0.106 8.887,0.059 13.25,-0.774 2.171,-0.427 4.328,-1.042 6.293,-2.082 1.96,-1.028 3.714,-2.509 4.88,-4.405 1.183,-1.887 1.731,-4.119 1.815,-6.33 0.09,-2.22 -0.22,-4.431 -0.668,-6.601 l -0.056,0.016 c 3.197,8.924 7.336,17.512 12.325,25.574 l 0.002,0.004 0.004,0.004 c 5.167,5.382 11.519,9.621 18.477,12.316 l 0.016,-0.083 -39.391,0.116 c -3.281,0.021 -6.567,0.013 -9.837,-0.254 -3.257,-0.279 -6.558,-0.825 -9.521,-2.26 C 9.373,15.098 8.05,14.085 6.88,12.944 L 6.045,12.041 C 5.768,11.738 5.547,11.39 5.295,11.066 4.779,10.426 4.385,9.703 3.951,9.007 2.308,6.16 1.159,3.066 0,0 m 0,0 c 1.155,3.067 2.301,6.163 3.941,9.013 0.434,0.696 0.828,1.42 1.343,2.061 0.252,0.323 0.472,0.673 0.749,0.976 l 0.836,0.905 c 1.169,1.144 2.493,2.159 3.994,2.835 2.965,1.44 6.268,1.99 9.527,2.272 3.272,0.272 6.559,0.283 9.84,0.266 l 39.391,-0.073 0.228,-10e-4 -0.212,-0.082 C 62.693,15.471 56.36,11.236 51.192,5.873 l 0.006,0.008 C 46.203,-2.171 42.057,-10.748 38.852,-19.665 l -0.056,0.016 c 0.45,2.166 0.762,4.372 0.674,6.586 -0.082,2.206 -0.625,4.428 -1.801,6.309 -1.16,1.89 -2.905,3.368 -4.859,4.396 -1.959,1.04 -4.115,1.657 -6.283,2.086 C 22.169,0.563 17.707,0.616 13.284,0.516 8.854,0.418 4.433,0.038 0,0"
             style="fill:#1d1d1b;fill-opacity:1;fill-rule:nonzero;stroke:none"
             id="path344" /></g></g></g><g
       id="g346"><g
         id="g348"><g
           id="g354"><g
             id="g356"><path
               d="m 337.157,332.932 c -12.137,-0.809 -20.976,-5.647 -25.251,-8.39 v 0 l -0.047,-0.201 c 13.128,0.518 42.581,7.474 38.075,-18.17 v 0 c 1.235,3.533 2.658,7.248 4.301,11.101 v 0 c 1.864,4.376 3.793,8.417 5.712,12.12 v 0 c -4.004,1.563 -10.774,3.656 -19.316,3.656 v 0 c -1.127,0 -2.287,-0.036 -3.474,-0.116"
               style="fill:url(#linearGradient388);stroke:none"
               id="path390" /></g></g></g></g></g></svg>
